<?xml version="1.0" encoding="UTF-8"?>
<svg width="42px" height="42px" viewBox="0 0 42 42" version="1.1" xmlns="http://www.w3.org/2000/svg" xmlns:xlink="http://www.w3.org/1999/xlink">
    <!-- Generator: Sketch 42 (36781) - http://www.bohemiancoding.com/sketch -->
    <title>Shape</title>
    <desc>Created with Sketch.</desc>
    <defs></defs>
    <g id="Page-1" stroke="none" stroke-width="1" fill="none" fill-rule="evenodd">
        <g id="Layout-1" transform="translate(-591.000000, -2536.000000)">
            <g id="Services" transform="translate(0.000000, 1663.000000)">
                <rect id="Background" fill="#F0F8FA" x="-2.84217094e-14" y="0" width="1440" height="1242"></rect>
                <rect id="Bounding-Box" x="240" y="0" width="960" height="1242"></rect>
                <g id="Content" transform="translate(240.000000, 90.000000)">
                    <g id="Services" transform="translate(0.000000, 117.000000)">
                        <g id="And-More" transform="translate(330.000000, 636.000000)">
                            <rect id="Bounding-Box" x="0" y="0" width="300" height="309"></rect>
                            <g id="Add" transform="translate(21.000000, 30.000000)">
                                <path d="M21,3.5 C11.34,3.5 3.5,11.34 3.5,21 C3.5,30.66 11.34,38.5 21,38.5 C30.66,38.5 38.5,30.66 38.5,21 C38.5,11.34 30.66,3.5 21,3.5 Z M29.75,22.75 L22.75,22.75 L22.75,29.75 L19.25,29.75 L19.25,22.75 L12.25,22.75 L12.25,19.25 L19.25,19.25 L19.25,12.25 L22.75,12.25 L22.75,19.25 L29.75,19.25 L29.75,22.75 Z" id="Shape" fill="#EE5D45" fill-rule="nonzero"></path>
                                <polygon id="Shape" points="0 0 42 0 42 42 0 42"></polygon>
                            </g>
                        </g>
                    </g>
                </g>
            </g>
        </g>
    </g>
</svg>