<?xml version="1.0" encoding="UTF-8"?>
<svg width="43px" height="43px" viewBox="0 0 43 43" version="1.1" xmlns="http://www.w3.org/2000/svg" xmlns:xlink="http://www.w3.org/1999/xlink">
    <!-- Generator: Sketch 42 (36781) - http://www.bohemiancoding.com/sketch -->
    <title>Shape</title>
    <desc>Created with Sketch.</desc>
    <defs></defs>
    <g id="Page-1" stroke="none" stroke-width="1" fill="none" fill-rule="evenodd">
        <g id="Layout-1" transform="translate(-261.000000, -2218.000000)">
            <g id="Services" transform="translate(0.000000, 1663.000000)">
                <rect id="Background" fill="#F0F8FA" x="-2.84217094e-14" y="0" width="1440" height="1242"></rect>
                <rect id="Bounding-Box" x="240" y="0" width="960" height="1242"></rect>
                <g id="Content" transform="translate(240.000000, 90.000000)">
                    <g id="Services" transform="translate(0.000000, 117.000000)">
                        <g id="Back-&amp;-Posture-Issues" transform="translate(0.000000, 318.000000)">
                            <rect id="Bounding-Box" x="0" y="0" width="300" height="309"></rect>
                            <g id="Man-Icon" transform="translate(21.000000, 30.000000)">
                                <path d="M21,3.5 C22.925,3.5 24.5,5.075 24.5,7 C24.5,8.925 22.925,10.5 21,10.5 C19.075,10.5 17.5,8.925 17.5,7 C17.5,5.075 19.075,3.5 21,3.5 Z M36.75,15.75 L26.25,15.75 L26.25,38.5 L22.75,38.5 L22.75,28 L19.25,28 L19.25,38.5 L15.75,38.5 L15.75,15.75 L5.25,15.75 L5.25,12.25 L36.75,12.25 L36.75,15.75 Z" id="Shape" fill="#EE5D45" fill-rule="nonzero"></path>
                                <polygon id="Shape" points="0 0 42 0 42 42 0 42"></polygon>
                            </g>
                        </g>
                    </g>
                </g>
            </g>
        </g>
    </g>
</svg>