<?xml version="1.0" encoding="UTF-8"?>
<svg width="42px" height="42px" viewBox="0 0 42 42" version="1.1" xmlns="http://www.w3.org/2000/svg" xmlns:xlink="http://www.w3.org/1999/xlink">
    <!-- Generator: Sketch 42 (36781) - http://www.bohemiancoding.com/sketch -->
    <title>Bounding Box</title>
    <desc>Created with Sketch.</desc>
    <defs></defs>
    <g id="Page-1" stroke="none" stroke-width="1" fill="none" fill-rule="evenodd">
        <g id="Layout-1" transform="translate(-261.000000, -1900.000000)">
            <g id="Services" transform="translate(0.000000, 1663.000000)">
                <rect id="Background" fill="#F0F8FA" x="-2.84217094e-14" y="0" width="1440" height="1242"></rect>
                <rect id="Bounding-Box" x="240" y="0" width="960" height="1242"></rect>
                <g id="Content" transform="translate(240.000000, 90.000000)">
                    <g id="Services" transform="translate(0.000000, 117.000000)">
                        <g id="Fat-Loss">
                            <rect id="Bounding-Box" x="0" y="0" width="300" height="309"></rect>
                            <g id="Icon" transform="translate(21.000000, 30.000000)" fill="#EE5D45">
                                <path d="M31.6666667,29 C31.6666667,27.5416667 30.4583333,26.3333333 29,26.3333333 C27.5416667,26.3333333 26.3333333,27.5416667 26.3333333,29 C26.3333333,30.4583333 27.5416667,31.6666667 29,31.6666667 C30.4583333,31.6666667 31.6666667,30.4583333 31.6666667,29 Z M15.6666667,13 C15.6666667,11.5416667 14.4583333,10.3333333 13,10.3333333 C11.5416667,10.3333333 10.3333333,11.5416667 10.3333333,13 C10.3333333,14.4583333 11.5416667,15.6666667 13,15.6666667 C14.4583333,15.6666667 15.6666667,14.4583333 15.6666667,13 Z M37,29 C37,33.4166667 33.4166667,37 29,37 C24.5833333,37 21,33.4166667 21,29 C21,24.5833333 24.5833333,21 29,21 C33.4166667,21 37,24.5833333 37,29 Z M35,6.33333333 C35,6.625 34.8958333,6.89583333 34.7291667,7.125 L12.7291667,36.4583333 C12.4791667,36.7916667 12.0833333,37 11.6666667,37 L8.33333333,37 C7.60416667,37 7,36.3958333 7,35.6666667 C7,35.375 7.10416667,35.1041667 7.27083333,34.875 L29.2708333,5.54166667 C29.5208333,5.20833333 29.9166667,5 30.3333333,5 L33.6666667,5 C34.3958333,5 35,5.60416667 35,6.33333333 Z M21,13 C21,17.4166667 17.4166667,21 13,21 C8.58333333,21 5,17.4166667 5,13 C5,8.58333333 8.58333333,5 13,5 C17.4166667,5 21,8.58333333 21,13 Z" id="Percent"></path>
                            </g>
                            <rect id="Bounding-Box" x="21" y="30" width="42" height="42"></rect>
                        </g>
                    </g>
                </g>
            </g>
        </g>
    </g>
</svg>