<?xml version="1.0" encoding="UTF-8"?>
<svg width="42px" height="42px" viewBox="0 0 42 42" version="1.1" xmlns="http://www.w3.org/2000/svg" xmlns:xlink="http://www.w3.org/1999/xlink">
    <!-- Generator: Sketch 42 (36781) - http://www.bohemiancoding.com/sketch -->
    <title>Shape</title>
    <desc>Created with Sketch.</desc>
    <defs></defs>
    <g id="Page-1" stroke="none" stroke-width="1" fill="none" fill-rule="evenodd">
        <g id="Layout-1" transform="translate(-591.000000, -2218.000000)">
            <g id="Services" transform="translate(0.000000, 1663.000000)">
                <rect id="Background" fill="#F0F8FA" x="-2.84217094e-14" y="0" width="1440" height="1242"></rect>
                <rect id="Bounding-Box" x="240" y="0" width="960" height="1242"></rect>
                <g id="Content" transform="translate(240.000000, 90.000000)">
                    <g id="Services" transform="translate(0.000000, 117.000000)">
                        <g id="Health" transform="translate(330.000000, 318.000000)">
                            <rect id="Bounding-Box" x="0" y="0" width="300" height="309"></rect>
                            <g id="Heart" transform="translate(21.000000, 30.000000)">
                                <path d="M21,37.3625 L18.4625,35.0525 C9.45,26.88 3.5,21.49 3.5,14.875 C3.5,9.485 7.735,5.25 13.125,5.25 C16.17,5.25 19.0925,6.6675 21,8.9075 C22.9075,6.6675 25.83,5.25 28.875,5.25 C34.265,5.25 38.5,9.485 38.5,14.875 C38.5,21.49 32.55,26.88 23.5375,35.07 L21,37.3625 Z" id="Shape" fill="#EE5D45" fill-rule="nonzero"></path>
                                <polygon id="Shape" points="0 0 42 0 42 42 0 42"></polygon>
                            </g>
                        </g>
                    </g>
                </g>
            </g>
        </g>
    </g>
</svg>