<?xml version="1.0" encoding="UTF-8"?>
<svg width="60px" height="60px" viewBox="0 0 60 60" version="1.1" xmlns="http://www.w3.org/2000/svg" xmlns:xlink="http://www.w3.org/1999/xlink">
    <!-- Generator: Sketch 42 (36781) - http://www.bohemiancoding.com/sketch -->
    <title>Logo</title>
    <desc>Created with Sketch.</desc>
    <defs></defs>
    <g id="Page-1" stroke="none" stroke-width="1" fill="none" fill-rule="evenodd">
        <g id="Layout-2" transform="translate(-252.000000, -42.000000)" fill="#FFFFFF">
            <g id="Hero">
                <g id="Navigation" transform="translate(252.000000, 42.000000)">
                    <path d="M44.5119695,1.93545465 L44.5165098,1.93545465 L44.5165098,25.805911 C44.5165098,25.805911 39.3548167,30.6440947 30.0001135,30.6440947 C20.6560801,30.6440947 15.4937059,25.8167818 15.4823551,25.8056845 L15.4823551,59.9979617 L0,59.9979617 L0,0.000226474918 L15.4839442,0.000226474918 L15.4839442,25.8056845 L15.4839442,1.93522817 L15.4880305,1.93522817 C15.6760009,9.09047673 22.1010454,14.8384101 30.0003405,14.8384101 C37.8987276,14.8384101 44.3239991,9.09047673 44.5119695,1.93545465 L44.5119695,1.93545465 Z M44.5165098,0 L60,0 L60,60 L44.5162828,60 L44.5162828,0.00203827426 L44.5165098,0 Z" id="Logo"></path>
                </g>
            </g>
        </g>
    </g>
</svg>