<svg width="855" height="266" viewBox="0 0 855 266" xmlns="http://www.w3.org/2000/svg">
  <path d="M448.53 50.678h-37.286V151h37.286V92.496c4.532-5.15 9.27-8.446 14.214-8.446 5.974 0 8.858 4.12 8.858 13.802V151h37.286V92.29c5.15-5.768 9.682-8.24 14.008-8.24 5.974 0 8.652 4.12 8.652 13.802V151h37.286V87.14c0-27.192-8.24-38.11-28.84-38.11-10.3 0-19.57 3.914-33.784 17.098-3.914-11.948-12.36-17.098-26.368-17.098-11.124 0-19.982 4.738-31.312 15.244V50.678zm135.548-29.046c0 12.566 10.094 18.952 21.012 18.952 10.918 0 21.012-6.386 21.012-18.952 0-12.772-10.094-19.158-21.012-19.158-10.918 0-21.012 6.386-21.012 19.158zM623.836 151V50.678H586.55V151h37.286zm55.62-132.458H642.17V151h37.286v-19.57l8.858-10.094L707.884 151h40.788v-3.09l-36.668-53.766 35.226-40.582v-2.884h-40.17L679.456 81.99V18.542zm121.952 30.282c33.166 0 52.736 18.952 52.736 52.53 0 32.754-19.57 51.5-52.736 51.5s-52.736-18.746-52.736-51.5c0-33.578 19.57-52.53 52.736-52.53zm0 74.778c10.094 0 16.274-5.562 16.274-22.248 0-17.51-6.18-23.278-16.274-23.278-10.094 0-16.274 5.768-16.274 23.278 0 16.686 5.974 22.248 16.274 22.248zM196.073 8.727h.02v105.4s-22.737 21.363-63.944 21.363c-41.16 0-63.9-21.315-63.95-21.364v150.976H0V.182h68.206v113.944-105.4h.018C69.052 40.32 97.354 65.7 132.15 65.7c34.792 0 63.095-25.38 63.923-56.973zm.02-8.546h68.204v264.93h-68.205V.19zm135.815 0h3.073v264.29h-3.07zm118.68 227.6c.462-2.38.64-6.25.69-8.74-1.376-.77-2.366-1.92-2.366-3.52 0-1.54 1.32-2.53 2.75-2.53 1.32 0 2.86.66 3.465 2.92 1.815.22 2.365.22 2.915.22h2.86c.66 0 2.86 1.82 2.64 3.08 0 .66-2.475 7.15-2.475 12.65 0 1.54.715 2.97 2.2 2.97 2.53 0 3.465-3.52 3.96-5.94.055-.28.13-.53.22-.74v-6.41c-.11-.11-.22-.27-.33-.38-.88-.88-1.705-1.54-1.705-2.42 0-.55.385-1.21 1.265-1.32.165 0 .44-.05.77-.05v-15.62c0-1.59-.55-1.7-.55-2.09 0-.38.99-.6 1.76-.6 1.815 0 2.97 1.1 2.97 2.42v15.57c2.53-.22 5.335-.38 6.82-.38 1.21 0 2.255.39 2.255 1.54 0 .77-.33 3.47-1.045 3.47-.33 0-.22-.55-1.705-.66l-6.325-.38v1.21c5.005 6.11 8.195 12.65 8.195 21.73 0 9.19-2.915 15.84-7.315 15.84-3.85 0-5.06-4.18-5.06-8.25V236.1c-1.205 1.404-2.795 2.378-4.895 2.378-2.585 0-5.665-1.43-5.665-6.27 0-3.52.99-7.424 2.75-12.154h-4.785c-.046 1.793-.283 5.42-.936 8.428-.388 3.357-2.592 10-10.67 10-5.004 0-9.734-4.017-9.734-10.89 0-6.987 4.18-12.21 8.415-12.21 3.08 0 4.95 2.253 4.95 5.553 0 4.07-2.805 8.91-8.14 10.51.77 1.87 2.255 3.41 5.115 3.41 3.91 0 5.72-2.97 6.508-6.034.01-.06.022-.12.037-.18.033-.12.065-.24.096-.38.025-.11.048-.22.07-.33.007-.04.016-.08.025-.12zm51.77-.08c.45-2.38.626-6.19.674-8.65-1.375-.77-2.365-1.92-2.365-3.52 0-1.54 1.32-2.53 2.75-2.53 1.32 0 2.86.66 3.465 2.92 1.815.22 2.365.22 2.915.22h2.86c.66 0 2.86 1.82 2.64 3.08 0 .66-2.475 7.15-2.475 12.65 0 1.54.715 2.97 2.2 2.97 2.53 0 3.465-3.52 3.96-5.94.055-.28.13-.53.22-.74v-9.55c0-1.04-.22-1.37-.22-1.76 0-.55.66-.93 1.43-.93 1.815 0 2.97 1.1 2.97 2.42v2.31c1.43-2.97 3.355-5.28 5.83-5.28 3.3 0 4.235 2.7 4.345 5.17 1.375-2.91 3.3-5.17 5.775-5.17 3.575 0 4.4 3.03 4.4 5.56v11.39c0 .5 0 2.53 1.43 2.53 1.49 0 2.426-1.61 3.028-3.41-.038-.41-.058-.83-.058-1.26 0-9.18 6.38-14.79 13.09-14.79 1.485 0 2.53.88 2.53 2.31 0 .94-.165 1.27-.715 1.27-.495 0-1.045-.11-1.595-.11-4.18 0-9.075 3.576-9.075 11.496 0 2.86 1.21 4.51 3.135 4.51 1.485 0 2.475-1.32 3.08-2.86v-8.47c0-1.05-.22-1.38-.22-1.76 0-.55.66-.94 1.43-.94 1.815 0 2.97 1.1 2.97 2.42v9.076c0 1.21.55 2.53 1.87 2.53 2.2 0 3.19-3.52 3.685-5.94.055-.286.13-.532.22-.74v-9.55c0-1.043-.22-1.373-.22-1.76 0-.55.66-.933 1.43-.933 1.815 0 2.97 1.1 2.97 2.42v2.475c1.485-3.08 3.465-5.44 6.16-5.44 3.685 0 4.565 3.024 4.565 5.554v11.38c0 .495 0 2.53 1.43 2.53 1.588 0 2.546-1.83 3.142-3.76-.22-.92-.337-1.92-.337-3 0-6.328 3.74-12.708 8.965-12.708 3.795 0 5.225 3.465 5.225 5.39 0 2.09-3.795 3.19-3.465 1.265-.275-.938-.385-2.97-2.255-2.97-2.035 0-3.96 4.07-3.96 9.02 0 4.342 2.365 6.762 5.61 6.762 3.466 0 5.425-2.33 6.397-5-.12-.71-.182-1.466-.182-2.26 0-6.984 4.18-12.21 8.415-12.21 3.08 0 4.95 2.256 4.95 5.556 0 4.07-2.805 8.91-8.14 10.5.77 1.87 2.255 3.41 5.115 3.41 4.29 0 6.05-3.57 6.71-6.93.495-2.47 3.575-1.37 3.355.55-.385 3.36-2.585 10.01-10.67 10.01-3.06 0-6.016-1.5-7.853-4.234-1.635 2.307-4.346 4.238-8.702 4.238-2.874 0-5.654-1.25-7.46-3.652-1.285 2.05-3.157 3.66-5.85 3.66-2.915 0-4.62-2.365-4.62-5.17v-11.17c0-1.704-.11-3.134-1.155-3.134-1.595 0-5.005 4.73-5.39 9.078v8.03c0 1.044.055 2.364-1.54 2.364-1.088 0-2.607-.375-2.64-2.354-1.21 1.39-2.806 2.355-4.895 2.355-1.925 0-3.41-.933-4.235-2.253-1.1 1.26-2.64 2.25-4.73 2.25-2.367 0-4.114-1.103-5.205-2.88-1.248 1.668-2.957 2.88-5.3 2.88-2.915 0-4.62-2.363-4.62-5.17v-11.17c0-1.703-.11-3.133-1.045-3.133-1.485 0-4.62 4.73-4.95 9.073v8.03c0 1.05.055 2.37-1.54 2.37-1.1 0-2.64-.386-2.64-2.42v-13.92c0-1.706-.11-3.136-1.045-3.136-1.485 0-4.62 4.73-4.95 9.07v8.03c0 1.05.055 2.37-1.54 2.37-1.092 0-2.618-.38-2.64-2.375-1.205 1.4-2.795 2.38-4.895 2.38-2.585 0-5.665-1.43-5.665-6.27 0-3.52.99-7.43 2.75-12.16h-4.785c-.05 1.94-.323 6.02-1.103 9.146-.013.09-.03.177-.052.267-.66 2.97-2.915 5.45-6.655 5.45-.99 0-1.87-.11-2.695-.382-1.375 2.366-3.465 3.96-6.6 3.96-5.555 0-8.03-4.73-8.03-10.23 0-8.084 4.4-12.98 5.61-12.98 1.43 0 2.53 2.916 1.1 3.85-.88 1.32-2.53 3.356-2.53 8.8 0 4.62 1.815 6.93 3.96 6.93 1.54 0 2.53-.824 3.245-2.09-2.585-2.2-3.96-5.83-3.96-9.79 0-3.464 1.485-6.434 4.455-6.434 2.585 0 4.675 3.91 4.675 9.24 0 2.04-.22 4.07-.77 5.94.385.11.715.11 1.1.11 2.057 0 3.28-1.37 3.783-3.14l.012-.05c.024-.08.047-.17.07-.27.038-.16.07-.33.095-.5.01-.05.023-.098.042-.14zm212.59.2v-21.73c0-4.12 2.254-7.04 5.004-7.04 4.84 0 4.895 5.78 4.895 8.86 0 8.09-5.005 19.2-5.72 19.86v3.19c0 2.2.88 3.8 2.915 3.8 2.53 0 4.4-3.46 4.895-5.88.032-.15.07-.29.11-.42v-22.35c0-4.12 2.255-7.04 5.005-7.04 4.84 0 4.895 5.78 4.895 8.86 0 8.09-5.005 19.2-5.72 19.86v3.19c0 2.2.88 3.8 2.915 3.8 2.53 0 4.4-3.46 4.895-5.88.66-3.242 3.63-.77 3.19.99-.99 2.97-3.685 8.528-8.69 8.528-2.92 0-4.9-1.39-5.847-3.675-1.455 2-3.506 3.67-6.253 3.67-2.85 0-4.8-1.32-5.775-3.504-1.618 1.97-4.145 3.504-8.03 3.504-5.005 0-9.735-4.016-9.735-10.89 0-6.986 4.18-12.21 8.415-12.21 3.08 0 4.95 2.254 4.95 5.554 0 4.07-2.805 8.91-8.14 10.504.77 1.87 2.255 3.41 5.115 3.41 4.29 0 6.05-3.577 6.71-6.93zm84.935 7.48c-1.626 1.76-4.06 3.08-7.66 3.08-5.006 0-9.736-4.01-9.736-10.89 0-6.98 4.18-12.21 8.415-12.21 3.08 0 4.95 2.26 4.95 5.56 0 4.07-2.805 8.91-8.14 10.51.77 1.87 2.255 3.41 5.115 3.41 4.29 0 6.05-3.57 6.71-6.93v-9.3c0-1.04-.22-1.37-.22-1.76 0-.55.66-.93 1.43-.93 1.815 0 2.97 1.1 2.97 2.42v13.97c0 .5 0 2.53 1.43 2.53 2.2 0 3.19-3.52 3.685-5.94.058-.29.132-.53.22-.74v-9.55c0-1.04-.22-1.37-.22-1.76 0-.55.66-.93 1.43-.93 1.815 0 2.97 1.1 2.97 2.42v2.48c1.485-3.08 3.465-5.44 6.16-5.44 3.685 0 4.565 3.03 4.565 5.56v11.38c0 .5 0 2.53 1.43 2.53 1.32 0 2.203-1.26 2.807-2.8-.147-.76-.222-1.57-.222-2.42 0-9.18 6.38-14.79 13.09-14.79 1.485 0 2.53.88 2.53 2.31 0 .935-.165 1.265-.715 1.265-.495 0-1.045-.11-1.595-.11-4.03 0-8.724 3.323-9.056 10.66.06.186.09.376.09.56 0 .055 0 .165-.054.385l-.05.19c.083 2.67 1.274 4.206 3.13 4.206 2.2 0 3.3-2.92 3.685-5.12v-6.214c0-1.043-.22-1.373-.22-1.76 0-.55.66-.933 1.43-.933 1.815 0 2.97 1.1 2.97 2.42v14.96c1.98-2.2 3.74-4.95 4.84-8.745.33-1.153.77-1.65 1.32-1.65.88 0 1.925 1.21 1.925 2.257 0 .057 0 .33-.055.55-1.87 6.38-5.06 9.627-8.03 12.21v9.517c0 5.77-2.915 7.81-5.72 7.81-3.08 0-5.28-2.81-5.28-6.33 0-5.554 3.19-8.36 6.82-11.55v-5.774c-1.1 1.1-2.585 1.98-4.51 1.98-2.102 0-3.716-.87-4.815-2.31-1.254 1.654-2.97 2.86-5.305 2.86-2.915 0-4.62-2.367-4.62-5.17v-11.17c0-1.707-.11-3.137-1.155-3.137-1.595 0-5.005 4.73-5.39 9.08v8.03c0 1.05.055 2.37-1.54 2.37-1.092 0-2.618-.38-2.64-2.376-1.205 1.4-2.795 2.377-4.895 2.377-2.147 0-3.638-1.285-4.274-3.08zm37.604 20.74c1.76 0 1.54-3.3 1.54-4.34v-5.88c-1.76 1.82-2.97 3.91-2.97 7.21 0 1.71.55 3.03 1.43 3.03zm-35.035-45.65c-1.815 0-3.3-1.54-3.3-3.35 0-1.92 1.485-3.35 3.3-3.35 1.925 0 3.355 1.43 3.355 3.36 0 1.82-1.43 3.36-3.355 3.36zm-15.455 16.94c0 .33.055.66.055.99 2.75-1.26 4.51-4.12 4.51-7.42 0-1.21-.44-1.92-1.155-1.92-2.695 0-3.52 6.05-3.41 8.36zm-26.675.66V208.1c0-1.046-.22-1.376-.22-1.76 0-.55.66-.936 1.43-.936 1.815 0 3.08 1.1 3.08 2.42v20.406c0 5.28 1.76 7.37 5.005 7.37 3.08 0 5.39-2.42 5.39-5.61 0-4.95-3.795-6.435-7.26-6.435-.99 0-1.925-4.124-.275-4.124 2.585 0 8.91-1.7 8.91-9.68 0-4.18-2.695-8.47-9.46-8.47-8.855 0-12.43 5.83-12.43 12.54 0 4.84 1.98 6.55 2.09 6.71.605-.16.825.22.825.77 0 .99-1.485 4.62-3.08 3.41-.88-.82-4.015-4.12-4.015-10.56 0-10.28 6.765-16.99 16.555-16.99 8.305 0 13.75 4.68 13.75 12.49 0 6-3.08 9.68-7.095 11.83 3.19.94 5.775 3.69 5.775 8.42 0 5.5-4.18 9.52-9.625 9.52-7.205 0-9.35-4.56-9.35-11.33zm-29.095-23.1v15.68c1.155-2.31 2.31-9.57 2.31-12.59 0-3.63-.605-5.28-1.485-5.28-.605 0-.825 1.32-.825 2.2zm-12.1 0v15.68c1.155-2.31 2.31-9.57 2.31-12.59 0-3.63-.605-5.28-1.485-5.28-.605 0-.825 1.32-.825 2.2zm-16.72 22.44c0 .33.055.66.055.99 2.75-1.26 4.51-4.12 4.51-7.42 0-1.21-.44-1.92-1.155-1.92-2.695 0-3.52 6.05-3.41 8.36zm-9.13-22.71v25.03c0 6.44-3.52 8.75-6.82 8.75-.99 0-3.465-.22-5.17-2.31-1.54 2.09-3.74 2.31-4.73 2.31-3.41 0-6.6-2.31-6.6-8.74V204.7c0-2.75-.605-3.795-1.925-4.235-.165-.052-.22-.11-.22-.22 0-.492 1.98-1.812 3.52-1.812 1.375 0 2.915 1.266 2.915 5.72v26.126c0 4.18 1.87 4.18 2.585 4.18.825 0 2.64 0 2.64-4.73v-26.95c0-1.05-.22-1.38-.22-1.76 0-.55.66-.94 1.43-.94 1.815 0 3.08 1.1 3.08 2.42v27.78c0 4.18 1.76 4.18 2.585 4.18.715 0 2.64 0 2.64-4.18v-26.13c0-4.46 1.54-5.72 2.86-5.72 1.595 0 3.575 1.32 3.575 1.81 0 .11-.055.16-.22.22-1.43.44-1.925 1.48-1.925 4.23zm-40.755 31.13c.495.06.715.22.715.5 0 .77-1.76 2.15-3.135 2.15-.55 0-1.045-.22-1.375-.77-.44-.77-.88-1.54-1.265-2.31-1.925 2.04-4.235 3.08-6.38 3.08-5.665 0-8.58-4.51-8.58-10.23 0-6.82 3.96-13.14 5.445-15.29-2.2-7.09-2.75-11.44-2.75-11.82 0-1.26.77-2.14 2.145-2.14h10.285c.22-.05.44-.11.605-.11.715 0 1.045.61 1.045 1.32 0 1.27-.88 2.97-2.255 2.97-1.155 0-5.39-.05-7.37-.16.385 3.85 3.08 12.93 8.03 23.43.44-2.09.66-4.45.66-7.15 0-.77-.44-1.81-.22-2.31.44-1.1 1.925-1.43 3.355-1.43.66 0 1.375.22 1.375.61 0 .55-.495.28-.495 3.14 0 5.12-.88 9.08-2.255 12.1.77 1.49 1.54 2.97 2.42 4.46zm-11.22-1.43c1.705 0 3.135-.93 4.29-2.64-2.585-5.11-4.51-9.79-5.995-13.86-1.43 2.42-2.97 5.89-2.97 10.29 0 3.19 1.815 6.22 4.675 6.22zm-32.78-6.98c0 .33.055.66.055.99 2.75-1.26 4.51-4.12 4.51-7.42 0-1.21-.44-1.92-1.155-1.92-2.695 0-3.52 6.05-3.41 8.36zm-116.71-4.67c0 2.48.825 4.79 2.09 6.44.11-.88.165-1.7.165-2.53 0-3.74-.165-6.49-1.32-6.49-.605 0-.935.88-.935 2.59zm-16.17 21.01c0-5-1.375-10.83-4.015-15.95v23.54c0 1.76.22 4.24 1.32 4.24 1.595 0 2.695-4.84 2.695-11.82zm-37.62-16.33c0 .33.055.66.055.99 2.75-1.26 4.51-4.12 4.51-7.42 0-1.21-.44-1.92-1.155-1.92-2.695 0-3.52 6.05-3.41 8.36zm-24.805 9.46V208.1c0-1.046-.22-1.376-.22-1.76 0-.55.66-.936 1.43-.936 1.815 0 3.08 1.1 3.08 2.42v17.986c3.74-.44 11.275-4.62 11.275-13.86 0-4.18-2.53-9.405-8.965-9.405-8.855 0-12.43 5.83-12.43 12.54 0 4.84 1.98 6.546 2.09 6.71.605-.164.825.22.825.77 0 .99-1.485 4.62-3.08 3.41-.88-.824-4.015-4.124-4.015-10.56 0-10.284 6.765-16.994 16.555-16.994 8.03 0 13.255 5.61 13.255 13.42 0 9.57-7.425 16.56-15.51 18.1v7.26c0 .94-.715 1.27-1.54 1.27-1.265 0-2.75-.77-2.75-1.59z" fill-rule="evenodd" fill="#FFF"/>
</svg>
