<?xml version="1.0" encoding="UTF-8"?>
<svg width="400px" height="125px" viewBox="0 0 400 125" version="1.1" xmlns="http://www.w3.org/2000/svg" xmlns:xlink="http://www.w3.org/1999/xlink">
    <!-- Generator: Sketch 42 (36781) - http://www.bohemiancoding.com/sketch -->
    <title>Combined Shape</title>
    <desc>Created with Sketch.</desc>
    <defs></defs>
    <g id="Page-1" stroke="none" stroke-width="1" fill="none" fill-rule="evenodd">
        <g id="A4" transform="translate(-221.000000, -235.000000)" fill="#ECF0F1">
            <path d="M431.048989,258.64793 L413.587774,258.64793 L413.587774,305.629211 L431.048989,305.629211 L431.048989,278.231503 C433.171347,275.819733 435.390175,274.2762 437.705475,274.2762 C440.503128,274.2762 441.853719,276.205616 441.853719,280.739744 L441.853719,305.629211 L459.314934,305.629211 L459.314934,278.135032 C461.726704,275.43385 463.849062,274.2762 465.874949,274.2762 C468.672602,274.2762 469.926723,276.205616 469.926723,280.739744 L469.926723,305.629211 L487.387938,305.629211 L487.387938,275.723262 C487.387938,262.989116 483.529106,257.876164 473.882026,257.876164 C469.058486,257.876164 464.717299,259.709109 458.060814,265.88324 C456.227869,260.287934 452.272566,257.876164 445.712551,257.876164 C440.503128,257.876164 436.354883,260.094992 431.048989,265.015003 L431.048989,258.64793 Z M494.526777,245.045547 C494.526777,250.930266 499.253847,253.920861 504.366799,253.920861 C509.479752,253.920861 514.206821,250.930266 514.206821,245.045547 C514.206821,239.064357 509.479752,236.073762 504.366799,236.073762 C499.253847,236.073762 494.526777,239.064357 494.526777,245.045547 Z M513.145642,305.629211 L513.145642,258.64793 L495.684427,258.64793 L495.684427,305.629211 L513.145642,305.629211 Z M539.192759,243.598485 L521.731544,243.598485 L521.731544,305.629211 L539.192759,305.629211 L539.192759,296.464485 L543.341004,291.737415 L552.50573,305.629211 L571.606949,305.629211 L571.606949,304.182149 L554.435146,279.003269 L570.931653,259.998521 L570.931653,258.64793 L552.119847,258.64793 L539.192759,273.311492 L539.192759,243.598485 Z M596.303474,257.779693 C611.835274,257.779693 621,266.655007 621,282.379748 C621,297.718605 611.835274,306.497448 596.303474,306.497448 C580.771675,306.497448 571.606949,297.718605 571.606949,282.379748 C571.606949,266.655007 580.771675,257.779693 596.303474,257.779693 Z M312.830592,288.360829 L312.830635,288.360789 L312.830635,239.002059 L312.821903,239.002059 C312.434111,253.79744 299.179759,265.682454 282.885863,265.682454 C266.591966,265.682454 253.337611,253.797441 252.949822,239.002058 L252.94109,239.002058 L252.94109,288.360787 L252.94109,288.360787 L252.94109,235 L221,235 L221,359.06383 L252.94109,359.06383 L252.941134,288.360826 C252.965732,288.38392 263.610441,298.365933 282.885863,298.365933 C302.161204,298.365933 312.805906,288.384003 312.830592,288.360829 L312.830635,359.06383 L344.771725,359.06383 L344.771725,235 L312.830635,235 L312.830635,288.36079 L312.830592,288.360829 Z M596.303474,292.798594 C601.030544,292.798594 603.924668,290.193883 603.924668,282.379748 C603.924668,274.179729 601.030544,271.478547 596.303474,271.478547 C591.576405,271.478547 588.682281,274.179729 588.682281,282.379748 C588.682281,290.193883 591.479934,292.798594 596.303474,292.798594 Z M376.43426,235 L377.873466,235 L377.873466,358.764709 L376.43426,358.764709 L376.43426,235 Z M414.511716,345.838517 L414.511716,332.367727 C414.511716,331.878349 414.408689,331.723808 414.408689,331.543511 C414.408689,331.285943 414.71777,331.105646 415.078365,331.105646 C415.928338,331.105646 416.520744,331.620781 416.520744,332.238944 L416.520744,340.661407 C418.272204,340.455353 421.800881,338.497838 421.800881,334.170701 C421.800881,332.213187 420.61607,329.766294 417.602528,329.766294 C413.455689,329.766294 411.781499,332.496511 411.781499,335.638837 C411.781499,337.905433 412.708742,338.703892 412.760256,338.781163 C413.04358,338.703892 413.146607,338.88419 413.146607,339.141757 C413.146607,339.605379 412.451175,341.305326 411.704228,340.738677 C411.29212,340.352325 409.823984,338.806919 409.823984,335.793378 C409.823984,330.976862 412.992067,327.834536 417.576771,327.834536 C421.337259,327.834536 423.784152,330.461727 423.784152,334.119188 C423.784152,338.600865 420.306989,341.871975 416.520744,342.593164 L416.520744,345.993058 C416.520744,346.430923 416.185906,346.585463 415.799554,346.585463 C415.207149,346.585463 414.511716,346.224868 414.511716,345.838517 Z M432.012752,341.585215 C432.228957,340.471148 432.312559,338.658174 432.335399,337.493324 C431.69148,337.132729 431.227858,336.591837 431.227858,335.844891 C431.227858,335.123702 431.846021,334.66008 432.515697,334.66008 C433.133859,334.66008 433.855049,334.969161 434.138373,336.025188 C434.988346,336.128216 435.245914,336.128216 435.503482,336.128216 L436.842834,336.128216 C437.151915,336.128216 438.182186,336.978189 438.079158,337.570595 C438.079158,337.879676 436.920104,340.918974 436.920104,343.494651 C436.920104,344.215841 437.254942,344.885517 437.950375,344.885517 C439.135186,344.885517 439.573051,343.237083 439.804862,342.103786 C439.830457,341.969414 439.865589,341.854117 439.907889,341.756711 L439.907889,338.755406 C439.856375,338.703892 439.804862,338.626622 439.753348,338.575108 C439.34124,338.163 438.954889,337.853919 438.954889,337.441811 C438.954889,337.184243 439.135186,336.875162 439.547294,336.823648 C439.624565,336.823648 439.753348,336.797891 439.907889,336.797891 L439.907889,329.482969 C439.907889,328.736023 439.650321,328.68451 439.650321,328.504212 C439.650321,328.323915 440.113943,328.220888 440.474538,328.220888 C441.324511,328.220888 441.865403,328.736023 441.865403,329.354186 L441.865403,336.643351 C443.050215,336.540324 444.36381,336.463054 445.059243,336.463054 C445.625891,336.463054 446.11527,336.643351 446.11527,337.184243 C446.11527,337.544838 445.960729,338.806919 445.625891,338.806919 C445.471351,338.806919 445.522864,338.549352 444.827432,338.497838 L441.865403,338.317541 L441.865403,338.88419 C444.209269,341.743191 445.703162,344.808246 445.703162,349.058113 C445.703162,353.359493 444.338053,356.476062 442.277512,356.476062 C440.474538,356.476062 439.907889,354.518548 439.907889,352.612547 L439.907889,345.472467 C439.343168,346.128919 438.598561,346.585463 437.615537,346.585463 C436.404969,346.585463 434.96259,345.915787 434.96259,343.649192 C434.96259,342.000759 435.426211,340.172028 436.250428,337.956946 L434.009589,337.956946 C433.988092,338.795321 433.876889,340.494884 433.571159,341.902633 C433.389283,343.475366 432.357223,346.585463 428.574911,346.585463 C426.231045,346.585463 424.015963,344.705219 424.015963,341.485623 C424.015963,338.214514 425.973478,335.767621 427.956749,335.767621 C429.399128,335.767621 430.274858,336.823648 430.274858,338.369054 C430.274858,340.275055 428.961263,342.541651 426.462856,343.288597 C426.823451,344.164327 427.518884,344.885517 428.858236,344.885517 C430.689258,344.885517 431.536123,343.49486 431.905807,342.058983 C431.910089,342.030981 431.915889,342.002965 431.923291,341.975002 C431.938795,341.918625 431.953758,341.858933 431.968199,341.79624 C431.979565,341.744145 431.990345,341.692098 432.000561,341.640164 C432.004312,341.621411 432.008379,341.603096 432.012752,341.585215 L432.012752,341.585215 Z M426.128018,341.408353 C426.128018,341.562894 426.153775,341.717434 426.153775,341.871975 C427.441613,341.279569 428.26583,339.940217 428.26583,338.394811 C428.26583,337.828162 428.059776,337.493324 427.724938,337.493324 C426.462856,337.493324 426.076505,340.326569 426.128018,341.408353 Z M443.745647,349.058113 C443.745647,346.714247 443.101728,343.98403 441.865403,341.58865 L441.865403,352.612547 C441.865403,353.436763 441.96843,354.595818 442.483566,354.595818 C443.230512,354.595818 443.745647,352.329222 443.745647,349.058113 Z M456.257376,341.54598 C456.468016,340.428978 456.549944,338.644598 456.572518,337.493324 C455.928599,337.132729 455.464977,336.591837 455.464977,335.844891 C455.464977,335.123702 456.083139,334.66008 456.752815,334.66008 C457.370978,334.66008 458.092167,334.969161 458.375491,336.025188 C459.225465,336.128216 459.483032,336.128216 459.7406,336.128216 L461.079952,336.128216 C461.389033,336.128216 462.419304,336.978189 462.316277,337.570595 C462.316277,337.879676 461.157222,340.918974 461.157222,343.494651 C461.157222,344.215841 461.49206,344.885517 462.187493,344.885517 C463.372304,344.885517 463.810169,343.237083 464.04198,342.103786 C464.067575,341.969414 464.102707,341.854117 464.145007,341.756711 L464.145007,337.28727 C464.145007,336.797891 464.04198,336.643351 464.04198,336.463054 C464.04198,336.205486 464.351062,336.025188 464.711656,336.025188 C465.56163,336.025188 466.102522,336.540324 466.102522,337.158486 L466.102522,338.24027 C466.772198,336.849405 467.673685,335.767621 468.832739,335.767621 C470.378145,335.767621 470.81601,337.029702 470.867524,338.188757 C471.511443,336.823648 472.41293,335.767621 473.571984,335.767621 C475.246174,335.767621 475.632526,337.184243 475.632526,338.369054 L475.632526,343.700705 C475.632526,343.932516 475.632526,344.885517 476.302202,344.885517 C477.000118,344.885517 477.438008,344.129075 477.719956,343.288744 C477.702057,343.096027 477.693067,342.898192 477.693067,342.696191 C477.693067,338.394811 480.680852,335.767621 483.823178,335.767621 C484.518611,335.767621 485.007989,336.179729 485.007989,336.849405 C485.007989,337.28727 484.930719,337.441811 484.673151,337.441811 C484.44134,337.441811 484.183773,337.390297 483.926205,337.390297 C481.968691,337.390297 479.676338,339.064487 479.676338,342.773462 C479.676338,344.112814 480.242987,344.885517 481.144474,344.885517 C481.839907,344.885517 482.303529,344.267354 482.586853,343.546165 L482.586853,339.579622 C482.586853,339.090244 482.483826,338.935703 482.483826,338.755406 C482.483826,338.497838 482.792907,338.317541 483.153502,338.317541 C484.003475,338.317541 484.544368,338.832676 484.544368,339.450839 L484.544368,343.700705 C484.544368,344.267354 484.801935,344.885517 485.420098,344.885517 C486.450368,344.885517 486.91399,343.237083 487.145801,342.103786 C487.171396,341.969414 487.206528,341.854117 487.248828,341.756711 L487.248828,337.28727 C487.248828,336.797891 487.145801,336.643351 487.145801,336.463054 C487.145801,336.205486 487.454882,336.025188 487.815477,336.025188 C488.66545,336.025188 489.206342,336.540324 489.206342,337.158486 L489.206342,338.317541 C489.901775,336.875162 490.829019,335.767621 492.0911,335.767621 C493.816804,335.767621 494.228912,337.184243 494.228912,338.369054 L494.228912,343.700705 C494.228912,343.932516 494.228912,344.885517 494.898588,344.885517 C495.64214,344.885517 496.090547,344.026917 496.369679,343.123016 C496.267451,342.692623 496.212183,342.22378 496.212183,341.717434 C496.212183,338.755406 497.963643,335.767621 500.410536,335.767621 C502.187753,335.767621 502.857429,337.390297 502.857429,338.291784 C502.857429,339.270541 501.080212,339.785677 501.234753,338.88419 C501.105969,338.446325 501.054456,337.493324 500.178726,337.493324 C499.225725,337.493324 498.324238,339.399325 498.324238,341.717434 C498.324238,343.752219 499.431779,344.885517 500.951429,344.885517 C502.574564,344.885517 503.49158,343.792712 503.946971,342.544336 C503.89135,342.209764 503.861943,341.856584 503.861943,341.485623 C503.861943,338.214514 505.819458,335.767621 507.802729,335.767621 C509.245108,335.767621 510.120838,336.823648 510.120838,338.369054 C510.120838,340.275055 508.807243,342.541651 506.308836,343.288597 C506.669431,344.164327 507.364864,344.885517 508.704216,344.885517 C510.713244,344.885517 511.53746,343.211327 511.846541,341.640164 C512.078352,340.481109 513.520731,340.996245 513.417704,341.897732 C513.237407,343.468894 512.207136,346.585463 508.420891,346.585463 C506.987986,346.585463 505.603213,345.882741 504.743255,344.600883 C503.977621,345.680974 502.707831,346.585463 500.668104,346.585463 C499.322013,346.585463 498.020328,345.999296 497.17505,344.873898 C496.57271,345.834457 495.695762,346.585463 494.434966,346.585463 C493.069858,346.585463 492.271398,345.477922 492.271398,344.164327 L492.271398,338.935703 C492.271398,338.137243 492.219884,337.467567 491.730506,337.467567 C490.983559,337.467567 489.38664,339.682649 489.206342,341.717434 L489.206342,345.477922 C489.206342,345.967301 489.232099,346.585463 488.485153,346.585463 C487.975429,346.585463 487.263958,346.408934 487.249066,345.481945 C486.681948,346.133309 485.934763,346.585463 484.956476,346.585463 C484.054989,346.585463 483.359556,346.147598 482.973205,345.529436 C482.458069,346.121841 481.73688,346.585463 480.758123,346.585463 C479.649643,346.585463 478.831283,346.067953 478.320347,345.23627 C477.735809,346.016817 476.935675,346.585463 475.83858,346.585463 C474.473471,346.585463 473.675012,345.477922 473.675012,344.164327 L473.675012,338.935703 C473.675012,338.137243 473.623498,337.467567 473.185633,337.467567 C472.4902,337.467567 471.022064,339.682649 470.867524,341.717434 L470.867524,345.477922 C470.867524,345.967301 470.893281,346.585463 470.146334,346.585463 C469.631199,346.585463 468.910009,346.405166 468.910009,345.452165 L468.910009,338.935703 C468.910009,338.137243 468.858496,337.467567 468.420631,337.467567 C467.725198,337.467567 466.257062,339.682649 466.102522,341.717434 L466.102522,345.477922 C466.102522,345.967301 466.128279,346.585463 465.381332,346.585463 C464.869853,346.585463 464.155235,346.407716 464.145116,345.472341 C463.580382,346.12886 462.835743,346.585463 461.852655,346.585463 C460.642087,346.585463 459.199708,345.915787 459.199708,343.649192 C459.199708,342.000759 459.66333,340.172028 460.487546,337.956946 L458.246708,337.956946 C458.223471,338.863175 458.095419,340.77563 457.730168,342.238092 C457.723748,342.277861 457.715662,342.318939 457.705816,342.361353 C457.396734,343.752219 456.340707,344.911273 454.589247,344.911273 C454.125625,344.911273 453.713517,344.85976 453.327165,344.730976 C452.683246,345.838517 451.704489,346.585463 450.236353,346.585463 C447.634919,346.585463 446.475865,344.370381 446.475865,341.794704 C446.475865,338.00846 448.536406,335.716107 449.103055,335.716107 C449.772731,335.716107 450.287866,337.081216 449.61819,337.519081 C449.206082,338.137243 448.433379,339.090244 448.433379,341.640164 C448.433379,343.803732 449.283352,344.885517 450.287866,344.885517 C451.009056,344.885517 451.472678,344.499165 451.807516,343.906759 C450.596948,342.876489 449.953028,341.176542 449.953028,339.322055 C449.953028,337.699378 450.648461,336.308513 452.039327,336.308513 C453.249895,336.308513 454.228652,338.137243 454.228652,340.63565 C454.228652,341.58865 454.125625,342.541651 453.868057,343.417381 C454.048354,343.468894 454.202895,343.468894 454.383192,343.468894 C455.346159,343.468894 455.9197,342.826343 456.154605,341.998337 C456.156417,341.990556 456.158351,341.982777 456.160409,341.975002 C456.171537,341.934538 456.182386,341.892366 456.192964,341.848603 C456.210612,341.771724 456.225505,341.693545 456.23768,341.614407 C456.241786,341.590799 456.248428,341.567967 456.257376,341.54598 L456.257376,341.54598 Z M451.318137,339.219028 C451.318137,340.378082 451.704489,341.459866 452.296894,342.232569 C452.348408,341.820461 452.374165,341.43411 452.374165,341.047758 C452.374165,339.296298 452.296894,338.00846 451.756002,338.00846 C451.472678,338.00846 451.318137,338.420568 451.318137,339.219028 Z M505.973998,341.408353 C505.973998,341.562894 505.999755,341.717434 505.999755,341.871975 C507.287593,341.279569 508.11181,339.940217 508.11181,338.394811 C508.11181,337.828162 507.905756,337.493324 507.570918,337.493324 C506.308836,337.493324 505.922485,340.326569 505.973998,341.408353 Z M526.579412,345.349138 C526.811223,345.374895 526.91425,345.452165 526.91425,345.580949 C526.91425,345.941544 526.090034,346.585463 525.446115,346.585463 C525.188547,346.585463 524.956736,346.482436 524.802195,346.224868 C524.596141,345.864274 524.390087,345.503679 524.20979,345.143084 C523.308303,346.096085 522.226519,346.585463 521.222005,346.585463 C518.569058,346.585463 517.203949,344.473408 517.203949,341.794704 C517.203949,338.600865 519.058436,335.638837 519.753869,334.634323 C518.723598,331.3117 518.466031,329.276915 518.466031,329.096618 C518.466031,328.504212 518.826625,328.092104 519.470545,328.092104 L524.28706,328.092104 C524.390087,328.066347 524.493114,328.04059 524.570385,328.04059 C524.905223,328.04059 525.059763,328.323915 525.059763,328.658753 C525.059763,329.251159 524.647655,330.049618 524.003736,330.049618 C523.462844,330.049618 521.479572,330.023862 520.552329,329.972348 C520.732626,331.775322 521.994708,336.025188 524.312817,340.944731 C524.518871,339.965974 524.621898,338.858433 524.621898,337.596351 C524.621898,337.235757 524.415844,336.746378 524.518871,336.514567 C524.724925,335.999432 525.420358,335.844891 526.090034,335.844891 C526.399115,335.844891 526.733953,335.947918 526.733953,336.128216 C526.733953,336.385783 526.502142,336.256999 526.502142,337.596351 C526.502142,339.991731 526.090034,341.846218 525.446115,343.26284 C525.806709,343.958273 526.167304,344.653706 526.579412,345.349138 Z M521.325032,344.679462 C522.123492,344.679462 522.793168,344.241597 523.33406,343.443138 C522.123492,341.047758 521.222005,338.858433 520.526572,336.952432 C519.856896,338.08573 519.135707,339.708406 519.135707,341.768948 C519.135707,343.26284 519.98568,344.679462 521.325032,344.679462 Z M555.813344,341.640164 L555.813344,331.466241 C555.813344,329.534483 556.869371,328.169374 558.15721,328.169374 C560.423805,328.169374 560.449562,330.873835 560.449562,332.316214 C560.449562,336.102459 558.105696,341.305326 557.770858,341.614407 L557.770858,343.1083 C557.770858,344.13857 558.182967,344.885517 559.135967,344.885517 C560.320778,344.885517 561.196508,343.26284 561.428319,342.129542 C561.443111,342.056818 561.46038,341.990227 561.479833,341.929442 L561.479833,331.466241 C561.479833,329.534483 562.53586,328.169374 563.823699,328.169374 C566.090294,328.169374 566.116051,330.873835 566.116051,332.316214 C566.116051,336.102459 563.772185,341.305326 563.437347,341.614407 L563.437347,343.1083 C563.437347,344.13857 563.849455,344.885517 564.802456,344.885517 C565.987267,344.885517 566.862997,343.26284 567.094808,342.129542 C567.403889,340.609893 568.794755,341.768948 568.588701,342.593164 C568.125079,343.98403 566.862997,346.585463 564.519131,346.585463 C563.151114,346.585463 562.224273,345.935952 561.780876,344.865166 C561.099365,345.802034 560.138895,346.585463 558.852642,346.585463 C557.518482,346.585463 556.603931,345.967704 556.148196,344.943891 C555.39006,345.865857 554.20705,346.585463 552.387694,346.585463 C550.043828,346.585463 547.828746,344.705219 547.828746,341.485623 C547.828746,338.214514 549.78626,335.767621 551.769531,335.767621 C553.21191,335.767621 554.08764,336.823648 554.08764,338.369054 C554.08764,340.275055 552.774045,342.541651 550.275639,343.288597 C550.636234,344.164327 551.331666,344.885517 552.671018,344.885517 C554.680046,344.885517 555.504263,343.211327 555.813344,341.640164 L555.813344,341.640164 Z M549.940801,341.408353 C549.940801,341.562894 549.966558,341.717434 549.966558,341.871975 C551.254396,341.279569 552.078613,339.940217 552.078613,338.394811 C552.078613,337.828162 551.872558,337.493324 551.53772,337.493324 C550.275639,337.493324 549.889287,340.326569 549.940801,341.408353 Z M557.770858,330.899592 L557.770858,338.24027 C558.31175,337.158486 558.852642,333.758593 558.852642,332.341971 C558.852642,330.642024 558.569318,329.869321 558.15721,329.869321 C557.873885,329.869321 557.770858,330.487483 557.770858,330.899592 Z M563.437347,330.899592 L563.437347,338.24027 C563.978239,337.158486 564.519131,333.758593 564.519131,332.341971 C564.519131,330.642024 564.235807,329.869321 563.823699,329.869321 C563.540374,329.869321 563.437347,330.487483 563.437347,330.899592 Z M595.58905,345.142525 C594.827711,345.967165 593.688037,346.585463 592.001603,346.585463 C589.657737,346.585463 587.442655,344.705219 587.442655,341.485623 C587.442655,338.214514 589.400169,335.767621 591.38344,335.767621 C592.825819,335.767621 593.701549,336.823648 593.701549,338.369054 C593.701549,340.275055 592.387954,342.541651 589.889548,343.288597 C590.250142,344.164327 590.945575,344.885517 592.284927,344.885517 C594.293955,344.885517 595.118171,343.211327 595.427253,341.640164 L595.427253,337.28727 C595.427253,336.797891 595.324226,336.643351 595.324226,336.463054 C595.324226,336.205486 595.633307,336.025188 595.993902,336.025188 C596.843875,336.025188 597.384767,336.540324 597.384767,337.158486 L597.384767,343.700705 C597.384767,343.932516 597.384767,344.885517 598.054443,344.885517 C599.084714,344.885517 599.548336,343.237083 599.780146,342.103786 C599.806941,341.967581 599.841865,341.852282 599.883173,341.755824 L599.883173,337.28727 C599.883173,336.797891 599.780146,336.643351 599.780146,336.463054 C599.780146,336.205486 600.089228,336.025188 600.449822,336.025188 C601.299796,336.025188 601.840688,336.540324 601.840688,337.158486 L601.840688,338.317541 C602.536121,336.875162 603.463364,335.767621 604.725446,335.767621 C606.451149,335.767621 606.863258,337.184243 606.863258,338.369054 L606.863258,343.700705 C606.863258,343.932516 606.863258,344.885517 607.532934,344.885517 C608.150602,344.885517 608.564602,344.29303 608.847087,343.574266 C608.778235,343.216628 608.743502,342.835674 608.743502,342.438624 C608.743502,338.137243 611.731287,335.510053 614.873612,335.510053 C615.569045,335.510053 616.058424,335.922161 616.058424,336.591837 C616.058424,337.029702 615.981153,337.184243 615.723586,337.184243 C615.491775,337.184243 615.234207,337.132729 614.976639,337.132729 C613.089475,337.132729 610.891107,338.688746 610.735533,342.123877 C610.762992,342.211665 610.778286,342.300595 610.778286,342.38711 C610.778286,342.412867 610.778286,342.46438 610.752529,342.567407 C610.744849,342.597227 610.736985,342.627237 610.728937,342.657422 C610.767735,343.909531 611.325665,344.627949 612.194908,344.627949 C613.225179,344.627949 613.740315,343.26284 613.920612,342.232569 L613.920612,339.322055 C613.920612,338.832676 613.817585,338.678136 613.817585,338.497838 C613.817585,338.24027 614.126666,338.059973 614.487261,338.059973 C615.337234,338.059973 615.878126,338.575108 615.878126,339.193271 L615.878126,346.199112 C616.80537,345.168841 617.629586,343.881003 618.144722,342.103786 C618.299262,341.562894 618.505317,341.331083 618.762884,341.331083 C619.174993,341.331083 619.664371,341.897732 619.664371,342.38711 C619.664371,342.412867 619.664371,342.541651 619.638614,342.644678 C618.762884,345.632463 617.268992,347.152112 615.878126,348.36268 L615.878126,352.818601 C615.878126,355.523062 614.513018,356.476062 613.199422,356.476062 C611.757043,356.476062 610.726773,355.162467 610.726773,353.514034 C610.726773,350.9126 612.220665,349.599005 613.920612,348.105113 L613.920612,345.400652 C613.405477,345.915787 612.710044,346.327896 611.808557,346.327896 C610.823993,346.327896 610.06831,345.919622 609.553633,345.245558 C608.96645,346.021324 608.16205,346.585463 607.069312,346.585463 C605.704203,346.585463 604.905743,345.477922 604.905743,344.164327 L604.905743,338.935703 C604.905743,338.137243 604.85423,337.467567 604.364851,337.467567 C603.617905,337.467567 602.020985,339.682649 601.840688,341.717434 L601.840688,345.477922 C601.840688,345.967301 601.866445,346.585463 601.119498,346.585463 C600.608019,346.585463 599.893401,346.407716 599.883282,345.472341 C599.318548,346.12886 598.573909,346.585463 597.590821,346.585463 C596.585106,346.585463 595.88695,345.984323 595.58905,345.142525 L595.58905,345.142525 Z M589.55471,341.408353 C589.55471,341.562894 589.580466,341.717434 589.580466,341.871975 C590.868305,341.279569 591.692521,339.940217 591.692521,338.394811 C591.692521,337.828162 591.486467,337.493324 591.151629,337.493324 C589.889548,337.493324 589.503196,340.326569 589.55471,341.408353 Z M613.199422,354.853386 C614.023639,354.853386 613.920612,353.30798 613.920612,352.818601 L613.920612,350.062627 C613.096395,350.9126 612.529746,351.891357 612.529746,353.436763 C612.529746,354.235223 612.787314,354.853386 613.199422,354.853386 Z M545.665177,330.770808 L545.665177,342.490137 C545.665177,345.503679 544.016744,346.585463 542.471338,346.585463 C542.007716,346.585463 540.848662,346.482436 540.050202,345.503679 C539.329013,346.482436 538.298742,346.585463 537.83512,346.585463 C536.2382,346.585463 534.744308,345.503679 534.744308,342.490137 L534.744308,330.770808 C534.744308,329.482969 534.460983,328.993591 533.842821,328.787537 C533.765551,328.76178 533.739794,328.736023 533.739794,328.68451 C533.739794,328.452699 534.667038,327.834536 535.388227,327.834536 C536.032146,327.834536 536.753336,328.426942 536.753336,330.51324 L536.753336,342.747705 C536.753336,344.705219 537.629066,344.705219 537.963904,344.705219 C538.350255,344.705219 539.200229,344.705219 539.200229,342.490137 L539.200229,329.869321 C539.200229,329.379942 539.097202,329.225402 539.097202,329.045104 C539.097202,328.787537 539.406283,328.607239 539.766878,328.607239 C540.616851,328.607239 541.209257,329.122375 541.209257,329.740537 L541.209257,342.747705 C541.209257,344.705219 542.033473,344.705219 542.419825,344.705219 C542.754663,344.705219 543.656149,344.705219 543.656149,342.747705 L543.656149,330.51324 C543.656149,328.426942 544.377339,327.834536 544.995501,327.834536 C545.742448,327.834536 546.669691,328.452699 546.669691,328.68451 C546.669691,328.736023 546.643935,328.76178 546.566664,328.787537 C545.896988,328.993591 545.665177,329.482969 545.665177,330.770808 Z M577.062677,341.717434 L577.062677,332.367727 C577.062677,331.878349 576.95965,331.723808 576.95965,331.543511 C576.95965,331.285943 577.268731,331.105646 577.629326,331.105646 C578.479299,331.105646 579.071705,331.620781 579.071705,332.238944 L579.071705,341.794704 C579.071705,344.267354 579.895922,345.246111 581.415571,345.246111 C582.85795,345.246111 583.939734,344.112814 583.939734,342.618921 C583.939734,340.300812 582.162517,339.605379 580.539841,339.605379 C580.076219,339.605379 579.638354,337.673622 580.411057,337.673622 C581.621625,337.673622 584.583653,336.875162 584.583653,333.14043 C584.583653,331.182916 583.321572,329.173888 580.153489,329.173888 C576.00665,329.173888 574.33246,331.904106 574.33246,335.046431 C574.33246,337.313027 575.259704,338.111487 575.311217,338.188757 C575.594542,338.111487 575.697569,338.291784 575.697569,338.549352 C575.697569,339.012974 575.002136,340.71292 574.25519,340.146271 C573.843081,339.75992 572.374946,338.214514 572.374946,335.200972 C572.374946,330.384456 575.543028,327.242131 580.127733,327.242131 C584.017005,327.242131 586.566925,329.431456 586.566925,333.088917 C586.566925,335.896405 585.124546,337.622108 583.244302,338.626622 C584.738194,339.064487 585.948762,340.352325 585.948762,342.567407 C585.948762,345.143084 583.991248,347.023328 581.441328,347.023328 C578.067191,347.023328 577.062677,344.885517 577.062677,341.717434 Z M596.792361,333.475268 C595.942388,333.475268 595.246955,332.754079 595.246955,331.904106 C595.246955,331.002619 595.942388,330.332943 596.792361,330.332943 C597.693848,330.332943 598.363524,331.002619 598.363524,331.904106 C598.363524,332.754079 597.693848,333.475268 596.792361,333.475268 Z" id="Combined-Shape"></path>
        </g>
    </g>
</svg>