<?xml version="1.0" encoding="UTF-8"?>
<svg width="588px" height="174px" viewBox="0 0 588 174" version="1.1" xmlns="http://www.w3.org/2000/svg" xmlns:xlink="http://www.w3.org/1999/xlink">
    <!-- Generator: Sketch 40.3 (33839) - http://www.bohemiancoding.com/sketch -->
    <title>Group</title>
    <desc>Created with Sketch.</desc>
    <defs></defs>
    <g id="Page-1" stroke="none" stroke-width="1" fill="none" fill-rule="evenodd">
        <g id="Vertical-Front-(Dark-Green)-Copy" transform="translate(-227.000000, -116.000000)" fill="#ECF0F1">
            <g id="Group" transform="translate(227.000000, 80.000000)">
                <text id="miko" font-family="Gentona-ExtraBoldDEMO, Gentona" font-size="146" font-weight="600">
                    <tspan x="262" y="142">miko</tspan>
                </text>
                <text id="Performance-&amp;-Well-B" font-family="GrandHotel-Regular, Grand Hotel" font-size="40" font-weight="normal">
                    <tspan x="262" y="193">Performance &amp; Well Being</tspan>
                </text>
                <path d="M127.600769,41.561797 L127.612904,41.561797 L127.612904,110.157292 C127.612904,110.157292 112.817203,124.061779 86,124.061779 C59.2138131,124.061779 44.4213401,110.189439 44.3871574,110.157344 L44.3870963,208.415699 L0,208.415699 L0,36 L44.3870963,36 L44.3870963,110.15729 C44.3871189,110.157308 44.3870963,110.15729 44.3870963,110.15729 L44.3870963,41.5617947 L44.3992313,41.5617947 C44.9381232,62.1234399 63.3571053,78.6404442 86,78.6404442 C108.642895,78.6404442 127.061872,62.1234377 127.600769,41.561797 L127.600769,41.561797 Z M127.612904,36 L172,36 L172,208.415699 L127.612904,208.415699 L127.612904,36 L127.612904,36 Z" id="Shape"></path>
                <rect id="Rectangle" x="216" y="36" width="2" height="172"></rect>
            </g>
        </g>
    </g>
</svg>