<?xml version="1.0" encoding="UTF-8"?>
<svg width="42px" height="42px" viewBox="0 0 42 42" version="1.1" xmlns="http://www.w3.org/2000/svg" xmlns:xlink="http://www.w3.org/1999/xlink">
    <!-- Generator: Sketch 42 (36781) - http://www.bohemiancoding.com/sketch -->
    <title>Shape</title>
    <desc>Created with Sketch.</desc>
    <defs></defs>
    <g id="Page-1" stroke="none" stroke-width="1" fill="none" fill-rule="evenodd">
        <g id="Layout-1" transform="translate(-591.000000, -1900.000000)">
            <g id="Services" transform="translate(0.000000, 1663.000000)">
                <rect id="Background" fill="#F0F8FA" x="-2.84217094e-14" y="0" width="1440" height="1242"></rect>
                <rect id="Bounding-Box" x="240" y="0" width="960" height="1242"></rect>
                <g id="Content" transform="translate(240.000000, 90.000000)">
                    <g id="Services" transform="translate(0.000000, 117.000000)">
                        <g id="Muscle-Building" transform="translate(330.000000, 0.000000)">
                            <rect id="Bounding-Box" x="0" y="0" width="300" height="309"></rect>
                            <g id="Muscle" transform="translate(21.000000, 30.000000)" fill-rule="nonzero" fill="#EE5D45">
                                <polygon id="Shape" points="35.9975 26.005 38.5 23.5025 35.9975 21 29.75 27.2475 14.7525 12.25 21 6.0025 18.4975 3.5 15.995 6.0025 13.4925 3.5 9.7475 7.245 7.245 4.7425 4.7425 7.245 7.245 9.7475 3.5 13.4925 6.0025 15.995 3.5 18.4975 6.0025 21 12.25 14.7525 27.2475 29.75 21 35.9975 23.5025 38.5 26.005 35.9975 28.5075 38.5 32.2525 34.755 34.755 37.2575 37.2575 34.755 34.755 32.2525 38.5 28.5075"></polygon>
                            </g>
                            <polygon id="Shape" points="21 30 63 30 63 72 21 72"></polygon>
                        </g>
                    </g>
                </g>
            </g>
        </g>
    </g>
</svg>