<?xml version="1.0" encoding="UTF-8"?>
<svg width="42px" height="42px" viewBox="0 0 42 42" version="1.1" xmlns="http://www.w3.org/2000/svg" xmlns:xlink="http://www.w3.org/1999/xlink">
    <!-- Generator: Sketch 42 (36781) - http://www.bohemiancoding.com/sketch -->
    <title>Shape</title>
    <desc>Created with Sketch.</desc>
    <defs></defs>
    <g id="Page-1" stroke="none" stroke-width="1" fill="none" fill-rule="evenodd">
        <g id="Layout-1" transform="translate(-921.000000, -1900.000000)">
            <g id="Services" transform="translate(0.000000, 1663.000000)">
                <rect id="Background" fill="#F0F8FA" x="-2.84217094e-14" y="0" width="1440" height="1242"></rect>
                <rect id="Bounding-Box" x="240" y="0" width="960" height="1242"></rect>
                <g id="Content" transform="translate(240.000000, 90.000000)">
                    <g id="Services" transform="translate(0.000000, 117.000000)">
                        <g id="Strength-&amp;-Conditioning" transform="translate(660.000000, 0.000000)">
                            <rect id="Bounding-Box" x="0" y="0" width="300" height="309"></rect>
                            <g id="Bike-" transform="translate(21.000000, 30.000000)">
                                <path d="M27.125,9.625 C29.05,9.625 30.625,8.05 30.625,6.125 C30.625,4.2 29.05,2.625 27.125,2.625 C25.2,2.625 23.625,4.2 23.625,6.125 C23.625,8.05 25.2,9.625 27.125,9.625 Z M8.75,21 C3.85,21 0,24.85 0,29.75 C0,34.65 3.85,38.5 8.75,38.5 C13.65,38.5 17.5,34.65 17.5,29.75 C17.5,24.85 13.65,21 8.75,21 Z M8.75,35.875 C5.425,35.875 2.625,33.075 2.625,29.75 C2.625,26.425 5.425,23.625 8.75,23.625 C12.075,23.625 14.875,26.425 14.875,29.75 C14.875,33.075 12.075,35.875 8.75,35.875 Z M18.9,18.375 L23.1,14.175 L24.5,15.575 C26.775,17.85 29.75,19.25 33.425,19.25 L33.425,15.75 C30.8,15.75 28.7,14.7 27.125,13.125 L23.8,9.8 C22.925,9.1 22.05,8.75 21,8.75 C19.95,8.75 19.075,9.1 18.55,9.8 L13.65,14.7 C12.95,15.4 12.6,16.275 12.6,17.15 C12.6,18.2 12.95,19.075 13.65,19.6 L19.25,24.5 L19.25,33.25 L22.75,33.25 L22.75,22.4 L18.9,18.375 Z M33.25,21 C28.35,21 24.5,24.85 24.5,29.75 C24.5,34.65 28.35,38.5 33.25,38.5 C38.15,38.5 42,34.65 42,29.75 C42,24.85 38.15,21 33.25,21 Z M33.25,35.875 C29.925,35.875 27.125,33.075 27.125,29.75 C27.125,26.425 29.925,23.625 33.25,23.625 C36.575,23.625 39.375,26.425 39.375,29.75 C39.375,33.075 36.575,35.875 33.25,35.875 Z" id="Shape" fill="#EE5D45" fill-rule="nonzero"></path>
                                <polygon id="Shape" points="0 0 42 0 42 42 0 42"></polygon>
                            </g>
                        </g>
                    </g>
                </g>
            </g>
        </g>
    </g>
</svg>